<svg xmlns="http://www.w3.org/2000/svg" width="256" height="256" fill="none" viewBox="0 0 256 256">
<!-- SVG created with Arrow, by QuiverAI (https://quiver.ai) -->
  <path d="m166.7 9.82-7.77 8.8-95.63 105.6v-50.56h-20.32v108.8h20.26v-31.68l14.73-17.36 72.04 97.79c-8.71 2.17-16.81 2.93-25.2 2.57-56.4-0.92-103.5-46.71-103.5-105.3 0-57.83 47.24-107.3 106.7-107.3 6.08 0 11.18 0.49 16.93 1.52l13.98-15.1c-10.28-2.74-20.61-4.1-31.69-4.1-67.52 0-123.4 56.56-123.4 125.1 0 67.44 55.08 123.8 123 123.8 68.21 0 125.5-55.59 125.5-123.7 0-51.54-34.38-99.76-85.6-118.8zm7.97 221.4-83.02-111.4 83.63-95.08c39.7 21.03 66.2 60.42 66.2 103.4 0 44.17-26.56 84-66.81 103.1z" fill="url(#paint0_linear_124_117)"/>
  <path d="m125.6 90.97h64.35l-58.82 73.02 14.04 18.42c29.51-3.66 51.8-15.3 80.41-46.8l8.06 6.88 3.27-33.38-31.78 11.8 8.59 5.69c-20.51 24.75-39.42 35.51-60.82 39.74l63-78.89v-13.82h-75.65l-14.65 16.55v0.79z" fill="url(#paint1_linear_124_117)"/>
  <path d="m167.8 182.4h51.27v-17.03h-18.02c-11.91 8.4-21.17 13.16-33.25 17.03z" fill="url(#paint2_linear_124_117)"/>
  <path d="m149.4 103.5c0.45-0.56 0.77-1.28 0.77-2.09 0-0.96-0.74-1.74-1.7-1.74h-12.72c-0.87 0-1.59-0.99-1.59-1.62-0.42-0.83-1.25-1.37-2.21-1.37-1.51 0-2.56 1.12-2.65 2.4-0.07 0.59-0.88 0.59-0.88 0.59h-12.78c-1.26 0-1.89-0.17-1.89 1.7 0 0.6 0.24 1.15 0.59 1.6l-7.29 19.21c0 4.79 4.52 7.19 9.41 7.19 4.9 0 8.05-3.74 8.05-7.22l-7.59-18.55h10.84c0.95 0 1.44 1.23 1.44 2.18v29.93h-2.03c-4 0-6.6 1.96-6.6 5.92h23.15c0-3.96-3.03-5.92-7.04-5.92h-2.76v-29.93c0-0.95 0.79-2.18 1.74-2.18h10.71l-7.59 18.55c0 4.47 4.52 7.22 8.89 7.22 4.9 0 9.19-3.74 9.19-7.22l-7.46-18.65zm-39.85 18.17 6.82-15.62 6.1 15.62h-12.92zm31.73 0 6.39-15.62 6.69 15.62h-13.08z" fill="url(#paint3_linear_124_117)"/>
  <path d="m93.22 162.6c-1.15 0.15-2.16 0.76-2.86 1.67l-5.54-8.17c0.63-0.68 0.99-1.62 0.87-2.65-0.22-2.15-1.88-3.57-3.93-3.37-2.17 0.22-3.44 2.1-3.04 4.24l-4.94 2.85c-0.89-1.36-2.37-2.09-4.46-1.62-1.93 0.46-3.28 2.7-2.68 4.78 0.78 2.85 3.65 2.65 4.31 2.28l3.93-2.29 2.19 4.18-2.92 4.42c-1.16-0.91-2.67-1.21-4.4-0.47-1.96 0.88-3.23 3.02-2.63 4.87 0.96 3.11 3.82 2.83 5 2.2l6.06-1.45 0.4 2.25c-0.7 1-0.9 2.31-0.16 3.65 1.22 2.25 3.77 2.17 5.19 1.14 2.2-1.56 2-4.15 0.61-5.61l3.7-5.5c1.14 0.9 2.71 1.35 4.5 0.88 3.29-0.91 5.24-3.28 4.86-5.8-0.45-2.22-2.19-2.72-4.06-2.48zm-17.46-3.5-1.83-0.6 5.18-3.3 0.97 0.82-2.7 3.68-1.62-0.6zm2.51 13.62-5.58-0.65-0.23-1.4 2.73-1.35 1.73-0.25 1.86 1.73-0.51 1.92zm4.44-9.05c-2.5 0-3.6 1.33-3.9 3.13l-2.5-1.8 4.45-7.3 1.95-0.5 4.7 7.05-1.2 1.65c-0.6-1.3-1.7-2.23-3.5-2.23zm0.75 10.93-1.85-0.1-2.1-3.9 1.4-1.8 1.8 0.25 2.2-0.25 0.4 4.85-1.85 0.95z" fill="url(#paint4_linear_124_117)"/>
  <defs>
    <linearGradient id="paint0_linear_124_117" x1="39.41" x2="213.8" y1="37.39" y2="216" gradientUnits="userSpaceOnUse">
      <stop stop-color="#0B626D" offset="0"/>
      <stop stop-color="#236A68" offset=".349"/>
      <stop stop-color="#828751" offset=".651"/>
      <stop stop-color="#D3B05C" offset="1"/>
    </linearGradient>
    <linearGradient id="paint1_linear_124_117" x1="134.8" x2="215.8" y1="78.41" y2="160" gradientUnits="userSpaceOnUse">
      <stop stop-color="#757F53" offset="0"/>
      <stop stop-color="#256168" offset=".4792"/>
      <stop stop-color="#D3B05C" offset="1"/>
    </linearGradient>
    <linearGradient id="paint2_linear_124_117" x1="172.1" x2="178.7" y1="167" y2="189.6" gradientUnits="userSpaceOnUse">
      <stop stop-color="#838652" offset="0"/>
      <stop stop-color="#BC9955" offset="1"/>
    </linearGradient>
    <linearGradient id="paint3_linear_124_117" x1="107.1" x2="156.9" y1="119.2" y2="119.2" gradientUnits="userSpaceOnUse">
      <stop stop-color="#0A5261" offset="0"/>
      <stop stop-color="#C2A65B" offset="1"/>
    </linearGradient>
    <linearGradient id="paint4_linear_124_117" x1="66.47" x2="97.36" y1="165.9" y2="165.9" gradientUnits="userSpaceOnUse">
      <stop stop-color="#0A5261" offset="0"/>
      <stop stop-color="#878652" offset="1"/>
    </linearGradient>
  </defs>
</svg>